<svg width="50" height="50" viewBox="0 0 50 50" fill="none" xmlns="http://www.w3.org/2000/svg">
<path d="M49.0015 24.5008C49.0015 38.0322 38.0322 49.0015 24.5008 49.0015C10.9694 49.0015 0 38.0322 0 24.5008C0 10.9694 10.9694 0 24.5008 0C38.0322 0 49.0015 10.9694 49.0015 24.5008ZM4.90015 24.5008C4.90015 35.3259 13.6756 44.1014 24.5008 44.1014C35.3259 44.1014 44.1014 35.3259 44.1014 24.5008C44.1014 13.6756 35.3259 4.90015 24.5008 4.90015C13.6756 4.90015 4.90015 13.6756 4.90015 24.5008Z" fill="white"/>
<path d="M29.3772 19.6253L19.6253 29.3773M19.6253 29.3773V19.6253M19.6253 29.3773H29.3772" stroke="#3B3B3B" stroke-width="1.3585" stroke-linecap="round" stroke-linejoin="round"/>
<path d="M24.5008 2.45008C24.5008 1.09694 25.6004 -0.0127006 26.9468 0.12238C31.3796 0.567115 35.6242 2.21445 39.2115 4.90788C43.4544 8.0935 46.5485 12.5703 48.0287 17.6653C49.5089 22.7602 49.2953 28.198 47.4199 33.1612C45.5445 38.1243 42.1086 42.3446 37.6289 45.1875C33.1492 48.0304 27.8677 49.3423 22.5785 48.926C17.2892 48.5097 12.2779 46.3878 8.29812 42.8791C4.3183 39.3704 1.58497 34.6646 0.509056 29.4692C-0.400629 25.0765 -0.0839189 20.5345 1.40107 16.3342C1.8521 15.0585 3.32435 14.5359 4.54871 15.112C5.77307 15.6882 6.28245 17.1449 5.86346 18.4315C4.81184 21.6608 4.61303 25.1225 5.3074 28.4755C6.16813 32.6318 8.35479 36.3965 11.5386 39.2034C14.7225 42.0104 18.7315 43.7079 22.9629 44.041C27.1943 44.374 31.4195 43.3244 35.0033 41.0501C38.5871 38.7758 41.3357 35.3996 42.836 31.4291C44.3364 27.4586 44.5073 23.1084 43.3231 19.0324C42.1389 14.9564 39.6637 11.375 36.2694 8.82646C33.5311 6.77053 30.3142 5.47649 26.9445 5.05307C25.602 4.88437 24.5008 3.80322 24.5008 2.45008Z" fill="#51459E"/>
</svg>
