<svg width="50" height="50" viewBox="0 0 50 50" fill="none" xmlns="http://www.w3.org/2000/svg">
<path d="M49.0015 24.5008C49.0015 38.0322 38.0322 49.0015 24.5008 49.0015C10.9694 49.0015 0 38.0322 0 24.5008C0 10.9694 10.9694 0 24.5008 0C38.0322 0 49.0015 10.9694 49.0015 24.5008ZM4.90015 24.5008C4.90015 35.3259 13.6756 44.1014 24.5008 44.1014C35.3259 44.1014 44.1014 35.3259 44.1014 24.5008C44.1014 13.6756 35.3259 4.90015 24.5008 4.90015C13.6756 4.90015 4.90015 13.6756 4.90015 24.5008Z" fill="white"/>
<path d="M19.6247 29.3764L29.3766 19.6244M29.3766 19.6244V29.3764M29.3766 19.6244H19.6247" stroke="#3B3B3B" stroke-width="1.3585" stroke-linecap="round" stroke-linejoin="round"/>
<path d="M24.5008 2.45008C24.5008 1.09694 25.6004 -0.0126903 26.9468 0.122401C30.1254 0.441327 33.2191 1.37971 36.0504 2.89302C39.6038 4.79236 42.6339 7.53873 44.8724 10.8889C47.1109 14.239 48.4886 18.0895 48.8836 22.0993C49.2785 26.109 48.6784 30.1543 47.1365 33.8768C45.5946 37.5993 43.1585 40.884 40.0439 43.4401C36.9293 45.9962 33.2324 47.7447 29.2806 48.5308C25.3289 49.3168 21.2443 49.1162 17.3886 47.9465C14.3165 47.0147 11.4654 45.4906 8.99228 43.4685C7.94472 42.612 7.95177 41.0498 8.90858 40.093C9.86539 39.1362 11.4085 39.1503 12.4772 39.9803C14.3649 41.4466 16.5105 42.5595 18.811 43.2574C21.8956 44.1931 25.1633 44.3536 28.3247 43.7248C31.4861 43.0959 34.4436 41.6971 36.9353 39.6522C39.4269 37.6074 41.3759 34.9796 42.6094 32.0016C43.8429 29.0236 44.3229 25.7874 44.007 22.5796C43.6911 19.3718 42.5889 16.2914 40.7981 13.6113C39.0073 10.9311 36.5832 8.73404 33.7404 7.21457C31.6203 6.08133 29.3161 5.3511 26.9445 5.05308C25.6019 4.88438 24.5008 3.80322 24.5008 2.45008Z" fill="#F9896B"/>
</svg>
