<svg width="64" height="64" viewBox="0 0 64 64" fill="none" xmlns="http://www.w3.org/2000/svg">
<rect width="64" height="64" rx="10" fill="#FE8F66"/>
<path d="M32.5359 31.0154C32.9623 31.0154 33.3094 30.6684 33.3094 30.2419C33.3094 29.8154 32.9624 29.4685 32.5359 29.4685H31.4184V31.0154H32.5359Z" fill="white"/>
<path d="M31.4184 32.6564V34.5382H32.9572C33.476 34.5382 33.898 34.1161 33.898 33.5973C33.898 33.0786 33.476 32.6564 32.9572 32.6564H31.4184Z" fill="white"/>
<path d="M28.7932 36.1792V34.5382H29.7777V29.4685H28.7932V27.8275H31.1807V26.4321H27.4177L26.4325 27.4174V36.5825L27.4177 37.5677H31.1807V36.1792H28.7932Z" fill="white"/>
<path d="M32.8213 26.4321V27.8449C34.0185 27.9867 34.9502 29.0073 34.9502 30.242C34.9502 30.7318 34.8032 31.1878 34.5515 31.5688C35.1521 32.042 35.5389 32.7751 35.5389 33.5973C35.5389 35.0209 34.3807 36.1792 32.9571 36.1792H32.8213V37.5677H36.5825L37.5677 36.5825V27.4174L36.5825 26.4322H32.8213V26.4321Z" fill="white"/>
<path d="M45.9999 28.342V26.701H42.5791V24.1407L39.8593 21.4208H37.2989V18H35.6579V21.4208H32.8204V18H31.1794V21.4208H28.342V18H26.701V21.4208H24.1406L21.4208 24.1407V26.701H18V28.342H21.4208V31.1795H18V32.8205H21.4208V35.6579H18V37.2989H21.4208V39.8593L24.1407 42.5792H26.701V46H28.342V42.5792H31.1795V46H32.8205V42.5792H35.658V46H37.299V42.5792H39.8593L42.5792 39.8593V37.2989H46V35.6579H42.5792V32.8204H46V31.1794H42.5792V28.342H45.9999V28.342ZM39.2088 37.2623L37.2623 39.2088H26.7376L24.7912 37.2623V26.7376L26.7376 24.7911H37.2623L39.2087 26.7376V37.2623H39.2088Z" fill="white"/>
<rect x="28.1643" y="26.4321" width="8.1385" height="11.1356" fill="white"/>
<path d="M34.7846 30.9656C34.7681 30.9366 34.7443 30.9125 34.7155 30.8957C34.6867 30.8789 34.654 30.8701 34.6207 30.8701H32.1531L32.5668 27.7092C32.5713 27.6669 32.5613 27.6243 32.5386 27.5884C32.516 27.5524 32.4818 27.5251 32.4417 27.5109C32.4016 27.4967 32.3579 27.4964 32.3176 27.51C32.2774 27.5237 32.2428 27.5505 32.2196 27.5861L29.2188 32.8434C29.2013 32.872 29.1917 32.9047 29.191 32.9382C29.1903 32.9717 29.1985 33.0047 29.2149 33.034C29.2312 33.0632 29.2551 33.0876 29.284 33.1045C29.3129 33.1215 29.3458 33.1304 29.3793 33.1304H31.8099L31.4821 36.2961C31.4789 36.3382 31.4898 36.3802 31.5133 36.4155C31.5367 36.4507 31.5712 36.477 31.6113 36.4903C31.6514 36.5037 31.6949 36.5032 31.7347 36.489C31.7745 36.4748 31.8084 36.4477 31.8311 36.412L34.7823 31.1552C34.7994 31.1266 34.8086 31.094 34.809 31.0607C34.8094 31.0274 34.801 30.9946 34.7846 30.9656Z" fill="#FE8F66"/>
</svg>
