<svg width="64" height="64" viewBox="0 0 64 64" fill="none" xmlns="http://www.w3.org/2000/svg">
<rect width="64" height="64" rx="10" fill="#783EFD"/>
<path d="M39.0336 23.1839V24.3877H37.8455V23.1839H34.7405V24.3877H33.5524V23.1839H30.4475V24.3877H29.2593V23.1839H26.1544V24.3877H24.9663V23.1839H21.8613V25.9612H42.1386V23.1839H39.0336Z" fill="white"/>
<path d="M38.4278 42L42.1384 38.2695H38.4278V42Z" fill="white"/>
<path d="M21.8613 42H37.2398V37.0814H42.1386V27.1493H21.8613V42ZM29.1934 36.5416H31.9117C32.6892 36.5416 33.3217 35.9172 33.3217 35.1497C33.3217 34.3822 32.6892 33.7578 31.9117 33.7578H29.2673V29.9446H34.1384V31.1327H30.4555V32.5696H31.9117C33.3443 32.5696 34.5098 33.7271 34.5098 35.1497C34.5098 36.5723 33.3443 37.7297 31.9117 37.7297H29.1934V36.5416Z" fill="white"/>
<path d="M37.8453 22H39.0335V23.184H37.8453V22Z" fill="white"/>
<path d="M33.5526 22H34.7408V23.184H33.5526V22Z" fill="white"/>
<path d="M29.2595 22H30.4476V23.184H29.2595V22Z" fill="white"/>
<path d="M24.9661 22H26.1542V23.184H24.9661V22Z" fill="white"/>
</svg>
